<svg width="75" height="85" viewBox="0 0 75 85" fill="none" xmlns="http://www.w3.org/2000/svg">
<path d="M37.5 84.3679C38.7549 84.3679 39.9938 84.0358 41.0804 83.4083L71.4195 65.8927C73.6278 64.618 75 62.2415 75 59.6913V24.6591C75 22.1089 73.6278 19.7324 71.4195 18.4578L41.0804 0.941215C38.9062 -0.313738 36.0946 -0.313738 33.9195 0.941215L3.58044 18.4569C1.37218 19.7315 -3.05176e-05 22.108 -3.05176e-05 24.6582V59.6904C-3.05176e-05 62.2406 1.37218 64.6171 3.58044 65.8918L33.9195 83.4083C35.0071 84.0358 36.245 84.3679 37.5 84.3679ZM37.5 3.56212C38.1275 3.56212 38.7469 3.72771 39.2902 4.0419L69.6293 21.5575C70.7339 22.1949 71.4195 23.3836 71.4195 24.6582V59.6904C71.4195 60.966 70.7339 62.1538 69.6293 62.7911L39.2902 80.3076C38.2026 80.9351 36.7973 80.9351 35.7097 80.3076L5.37067 62.792C4.26699 62.1547 3.58044 60.966 3.58044 59.6913V24.6591C3.58044 23.3836 4.26699 22.1958 5.37067 21.5584L35.7097 4.0419C36.2531 3.72771 36.8725 3.56212 37.5 3.56212Z" fill="#E2E2E3"/>
<path d="M19.5952 40.958H55.4047V43.3402H19.5952V40.958Z" fill="#E2E2E3"/>
<path fill-rule="evenodd" clip-rule="evenodd" d="M37.5368 25.3654C33.2329 25.3654 29.7387 28.8595 29.7387 33.1668V36.5237C29.7387 37.523 30.5486 38.3328 31.5478 38.3328H43.529C44.5283 38.3328 45.3381 37.523 45.3381 36.5237V33.1668C45.3381 28.8595 41.844 25.3654 37.5368 25.3654ZM37.5368 13.5247C34.5031 13.5247 32.0442 15.9836 32.0442 19.0205C32.0442 22.0542 34.5031 24.5164 37.5368 24.5164C40.5737 24.5164 43.0359 22.0542 43.0359 19.0205C43.0359 15.9836 40.5737 13.5247 37.5368 13.5247Z" fill="#E2E2E3"/>
<path fill-rule="evenodd" clip-rule="evenodd" d="M37.5401 58.9971C41.8441 58.9971 45.3382 55.503 45.3382 51.1958V47.8388C45.3382 46.8396 44.5283 46.0297 43.5291 46.0297H31.5479C30.5486 46.0297 29.7388 46.8396 29.7388 47.8388V51.1958C29.7388 55.503 33.2329 58.9971 37.5401 58.9971ZM37.5401 70.8379C40.5738 70.8379 43.0327 68.379 43.0327 65.342C43.0327 62.3084 40.5738 59.8462 37.5401 59.8462C34.5032 59.8462 32.041 62.3084 32.041 65.342C32.041 68.379 34.5032 70.8379 37.5401 70.8379Z" fill="#E2E2E3"/>
</svg>
