<svg width="153" height="172" viewBox="0 0 153 172" fill="none" xmlns="http://www.w3.org/2000/svg">
<path d="M76.4509 172C73.8925 172 71.3669 171.323 69.1515 170.044L7.29946 134.335C2.79752 131.736 0 126.891 0 121.692V50.2723C0 45.0733 2.79752 40.2283 7.29946 37.6297L69.1515 1.91885C73.5841 -0.639615 79.316 -0.639615 83.7504 1.91885L145.602 37.6278C150.104 40.2264 152.902 45.0715 152.902 50.2705V121.69C152.902 126.889 150.104 131.734 145.602 134.333L83.7504 170.044C81.5332 171.323 79.0094 172 76.4509 172ZM76.4509 7.26205C75.1717 7.26205 73.9089 7.59965 72.8012 8.24018L10.9492 43.9492C8.69731 45.2485 7.29946 47.6719 7.29946 50.2705V121.69C7.29946 124.291 8.69731 126.712 10.9492 128.012L72.8012 163.722C75.0184 165.002 77.8834 165.002 80.1007 163.722L141.953 128.013C144.203 126.714 145.602 124.291 145.602 121.692V50.2723C145.602 47.6719 144.203 45.2503 141.953 43.951L80.1007 8.24018C78.993 7.59965 77.7302 7.26205 76.4509 7.26205Z" fill="black"/>
<path d="M112.953 83.5007H39.9487V88.3572H112.953V83.5007Z" fill="black"/>
<path fill-rule="evenodd" clip-rule="evenodd" d="M76.3759 51.7121C85.1503 51.7121 92.2738 58.8355 92.2738 67.6166V74.4604C92.2738 76.4976 90.6227 78.1486 88.5856 78.1486H64.1596C62.1225 78.1486 60.4714 76.4976 60.4714 74.4604V67.6166C60.4714 58.8355 67.5948 51.7121 76.3759 51.7121ZM76.3759 27.5724C82.5606 27.5724 87.5736 32.5855 87.5736 38.7768C87.5736 44.9615 82.5606 49.9812 76.3759 49.9812C70.1845 49.9812 65.1649 44.9615 65.1649 38.7768C65.1649 32.5855 70.1845 27.5724 76.3759 27.5724Z" fill="black"/>
<path fill-rule="evenodd" clip-rule="evenodd" d="M76.3693 120.277C67.5948 120.277 60.4714 113.153 60.4714 104.372V97.5286C60.4714 95.4914 62.1225 93.8404 64.1596 93.8404H88.5856C90.6227 93.8404 92.2738 95.4914 92.2738 97.5286V104.372C92.2738 113.153 85.1503 120.277 76.3693 120.277ZM76.3693 144.417C70.1846 144.417 65.1715 139.403 65.1715 133.212C65.1715 127.027 70.1846 122.008 76.3693 122.008C82.5606 122.008 87.5803 127.027 87.5803 133.212C87.5803 139.403 82.5606 144.417 76.3693 144.417Z" fill="black"/>
</svg>
