<svg width="244" height="274" viewBox="0 0 244 274" fill="none" xmlns="http://www.w3.org/2000/svg">
<path d="M121.557 273.481C125.625 273.481 129.641 272.404 133.163 270.37L231.508 213.593C238.666 209.461 243.115 201.757 243.115 193.491V79.9332C243.115 71.6667 238.666 63.9631 231.508 59.8313L133.163 3.05097C126.116 -1.01699 117.002 -1.01699 109.951 3.05097L11.6062 59.8284C4.4481 63.9602 4.57764e-05 71.6638 4.57764e-05 79.9303V193.488C4.57764e-05 201.754 4.4481 209.458 11.6062 213.59L109.951 270.37C113.476 272.404 117.489 273.481 121.557 273.481ZM121.557 11.5467C123.591 11.5467 125.599 12.0835 127.36 13.1019L225.705 69.8793C229.286 71.9452 231.508 75.7985 231.508 79.9303V193.488C231.508 197.623 229.286 201.473 225.705 203.539L127.36 260.319C123.835 262.353 119.28 262.353 115.754 260.319L17.4093 203.542C13.8317 201.476 11.6062 197.623 11.6062 193.491V79.9332C11.6062 75.7985 13.8317 71.9481 17.4093 69.8822L115.754 13.1019C117.515 12.0835 119.523 11.5467 121.557 11.5467Z" fill="#803EC5"/>
<path d="M63.5185 132.766H179.596V140.488H63.5185V132.766Z" fill="#803EC5"/>
<path fill-rule="evenodd" clip-rule="evenodd" d="M121.677 82.2227C107.725 82.2227 96.399 93.549 96.399 107.511V118.393C96.399 121.632 99.0242 124.257 102.263 124.257H141.101C144.34 124.257 146.965 121.632 146.965 118.393V107.511C146.965 93.549 135.639 82.2227 121.677 82.2227ZM121.677 43.8406C111.843 43.8406 103.872 51.8113 103.872 61.6556C103.872 71.4893 111.843 79.4706 121.677 79.4706C131.521 79.4706 139.502 71.4893 139.502 61.6556C139.502 51.8113 131.521 43.8406 121.677 43.8406Z" fill="#803EC5"/>
<path fill-rule="evenodd" clip-rule="evenodd" d="M121.687 191.241C135.638 191.241 146.965 179.915 146.965 165.953V155.071C146.965 151.832 144.34 149.207 141.1 149.207H102.263C99.0241 149.207 96.3989 151.832 96.3989 155.071L96.3989 165.953C96.3989 179.915 107.725 191.241 121.687 191.241ZM121.687 229.623C131.521 229.623 139.492 221.652 139.492 211.808C139.492 201.974 131.521 193.993 121.687 193.993C111.843 193.993 103.862 201.974 103.862 211.808C103.862 221.652 111.843 229.623 121.687 229.623Z" fill="#803EC5"/>
</svg>
