<svg width="126" height="31" viewBox="0 0 126 31" fill="none" xmlns="http://www.w3.org/2000/svg">
<path d="M0.882684 0.789866H10.7525L17.5416 17.3347H17.8839L24.673 0.789866H34.5428V30H26.7839V13.1129H26.5557L20.0518 29.7718H15.3736L8.86983 12.9988H8.64163V30H0.882684V0.789866ZM48.9125 30.3994C46.5734 30.3994 44.5576 29.9525 42.8651 29.0587C41.1821 28.1553 39.8842 26.8622 38.9714 25.1792C38.0681 23.4867 37.6164 21.4614 37.6164 19.1033C37.6164 16.8402 38.0728 14.8625 38.9856 13.1699C39.8985 11.4774 41.1869 10.1605 42.8509 9.21916C44.5148 8.27782 46.4784 7.80715 48.7414 7.80715C50.3959 7.80715 51.8934 8.06387 53.2341 8.57733C54.5748 9.09079 55.7206 9.83721 56.6715 10.8166C57.6223 11.7865 58.3545 12.9655 58.8679 14.3538C59.3814 15.742 59.6381 17.3061 59.6381 19.0462V20.8718H40.0696V16.536H52.3926C52.3831 15.9084 52.2215 15.3569 51.9077 14.8815C51.6034 14.3965 51.1898 14.021 50.6668 13.7547C50.1534 13.479 49.5686 13.3411 48.9125 13.3411C48.2755 13.3411 47.6907 13.479 47.1582 13.7547C46.6257 14.021 46.1978 14.3918 45.8746 14.8672C45.5608 15.3426 45.3944 15.8989 45.3754 16.536V21.2141C45.3754 21.9178 45.5227 22.5453 45.8175 23.0968C46.1123 23.6483 46.5354 24.081 47.0869 24.3947C47.6384 24.7085 48.304 24.8654 49.0837 24.8654C49.6257 24.8654 50.1201 24.7893 50.567 24.6372C51.0234 24.4851 51.4133 24.2664 51.7366 23.9811C52.0598 23.6864 52.2976 23.3345 52.4497 22.9257H59.6381C59.3909 24.447 58.8061 25.7687 57.8838 26.8907C56.9615 28.0032 55.7396 28.8685 54.2183 29.4865C52.7064 30.0951 50.9378 30.3994 48.9125 30.3994ZM64.2058 30V8.0924H66.6732V11.4584H66.8586C67.296 10.3554 68.0567 9.46638 69.1407 8.79127C70.2342 8.10666 71.4703 7.76436 72.849 7.76436C73.0582 7.76436 73.2912 7.76911 73.5479 7.77862C73.8046 7.78813 74.0186 7.79764 74.1897 7.80715V10.3887C74.0756 10.3697 73.8759 10.3412 73.5907 10.3031C73.3054 10.2651 72.9964 10.2461 72.6636 10.2461C71.5226 10.2461 70.5052 10.4885 69.6114 10.9735C68.7271 11.4489 68.0282 12.1097 67.5147 12.956C67.0013 13.8023 66.7445 14.7674 66.7445 15.8513V30H64.2058ZM78.522 30V8.0924H80.9895V11.4584H81.1749C81.6123 10.3554 82.373 9.46638 83.4569 8.79127C84.5504 8.10666 85.7865 7.76436 87.1653 7.76436C87.3744 7.76436 87.6074 7.76911 87.8641 7.77862C88.1209 7.78813 88.3348 7.79764 88.506 7.80715V10.3887C88.3919 10.3697 88.1922 10.3412 87.9069 10.3031C87.6217 10.2651 87.3126 10.2461 86.9798 10.2461C85.8388 10.2461 84.8214 10.4885 83.9276 10.9735C83.0433 11.4489 82.3444 12.1097 81.831 12.956C81.3175 13.8023 81.0608 14.7674 81.0608 15.8513V30H78.522ZM100.686 30.4564C98.7942 30.4564 97.1207 29.9762 95.6659 29.0159C94.2206 28.0555 93.0891 26.7291 92.2713 25.0366C91.4536 23.3345 91.0447 21.371 91.0447 19.146C91.0447 16.902 91.4536 14.929 92.2713 13.227C93.0891 11.5155 94.2206 10.1843 95.6659 9.23342C97.1207 8.27306 98.7942 7.79288 100.686 7.79288C102.579 7.79288 104.247 8.27306 105.693 9.23342C107.138 10.1938 108.269 11.525 109.087 13.227C109.914 14.929 110.328 16.902 110.328 19.146C110.328 21.371 109.919 23.3345 109.101 25.0366C108.284 26.7291 107.147 28.0555 105.693 29.0159C104.247 29.9762 102.579 30.4564 100.686 30.4564ZM100.686 28.1316C102.208 28.1316 103.496 27.7227 104.552 26.905C105.607 26.0872 106.406 24.9985 106.948 23.6388C107.499 22.2791 107.775 20.7815 107.775 19.146C107.775 17.5106 107.499 16.0082 106.948 14.639C106.406 13.2698 105.607 12.1715 104.552 11.3443C103.496 10.5171 102.208 10.1034 100.686 10.1034C99.1745 10.1034 97.8861 10.5171 96.8211 11.3443C95.7657 12.1715 94.9622 13.2698 94.4107 14.639C93.8687 16.0082 93.5978 17.5106 93.5978 19.146C93.5978 20.7815 93.8687 22.2791 94.4107 23.6388C94.9622 24.9985 95.7657 26.0872 96.8211 26.905C97.8766 27.7227 99.165 28.1316 100.686 28.1316ZM115.901 30V8.0924H118.369V11.4584H118.554C118.991 10.3554 119.752 9.46638 120.836 8.79127C121.93 8.10666 123.166 7.76436 124.544 7.76436C124.754 7.76436 124.987 7.76911 125.243 7.77862C125.5 7.78813 125.714 7.79764 125.885 7.80715V10.3887C125.771 10.3697 125.571 10.3412 125.286 10.3031C125.001 10.2651 124.692 10.2461 124.359 10.2461C123.218 10.2461 122.201 10.4885 121.307 10.9735C120.422 11.4489 119.724 12.1097 119.21 12.956C118.697 13.8023 118.44 14.7674 118.44 15.8513V30H115.901Z" fill="#E2E2E3"/>
</svg>
